<svg width="25" height="25" viewBox="0 0 25 25" fill="none" xmlns="http://www.w3.org/2000/svg">
<g clip-path="url(#clip0_3_27)">
<path d="M12.5 0.390625C5.81543 0.390625 0.390625 5.81543 0.390625 12.5C0.390625 19.1846 5.81543 24.6094 12.5 24.6094C19.1846 24.6094 24.6094 19.1846 24.6094 12.5C24.6094 5.81543 19.1846 0.390625 12.5 0.390625ZM9.04785 18.5547C7.44205 18.5547 5.90202 17.9168 4.76654 16.7813C3.63107 15.6458 2.99316 14.1058 2.99316 12.5C2.99316 10.8942 3.63107 9.35416 4.76654 8.21869C5.90202 7.08322 7.44205 6.44531 9.04785 6.44531C10.5762 6.44531 11.9824 6.98242 13.1006 8.02246L11.46 9.61426C10.8154 8.98437 9.93164 8.68164 9.04785 8.68164C6.95313 8.68164 5.27832 10.415 5.27832 12.4951C5.27832 14.5752 6.94824 16.3086 9.04785 16.3086C10.6396 16.3086 12.2168 15.376 12.4707 13.7061H9.04785V11.626H14.7559C14.8189 11.9592 14.8499 12.2976 14.8486 12.6367C14.8486 16.0937 12.5293 18.5547 9.04785 18.5547ZM20.2881 13.3691V15.1025H18.5547V13.3691H16.8213V11.6357H18.5547V9.90234H20.2881V11.6357H22.0068V13.3691H20.2881Z" fill="#343436"/>
</g>
<defs>
<clipPath id="clip0_3_27">
<rect width="25" height="25" fill="white"/>
</clipPath>
</defs>
</svg>
