<svg width="25" height="25" viewBox="0 0 25 25" fill="none" xmlns="http://www.w3.org/2000/svg">
<path d="M13.5708 2.08333C14.7427 2.08646 15.3375 2.09271 15.851 2.10729L16.0531 2.11458C16.2865 2.12292 16.5167 2.13333 16.7948 2.14583C17.9031 2.19792 18.6594 2.37292 19.3229 2.63021C20.0104 2.89479 20.5896 3.25313 21.1688 3.83125C21.6984 4.35198 22.1083 4.98186 22.3698 5.67708C22.6271 6.34063 22.8021 7.09688 22.8542 8.20625C22.8667 8.48333 22.8771 8.71354 22.8854 8.94792L22.8917 9.15C22.9073 9.6625 22.9135 10.2573 22.9156 11.4292L22.9167 12.2063V13.5708C22.9192 14.3306 22.9112 15.0904 22.8927 15.85L22.8865 16.0521C22.8781 16.2865 22.8677 16.5167 22.8552 16.7937C22.8031 17.9031 22.626 18.6583 22.3698 19.3229C22.109 20.0185 21.6991 20.6486 21.1688 21.1688C20.6479 21.6982 20.018 22.1081 19.3229 22.3698C18.6594 22.6271 17.9031 22.8021 16.7948 22.8542C16.5476 22.8658 16.3004 22.8762 16.0531 22.8854L15.851 22.8917C15.3375 22.9062 14.7427 22.9135 13.5708 22.9156L12.7937 22.9167H11.4302C10.6701 22.9193 9.90992 22.9113 9.15 22.8927L8.94792 22.8865C8.70064 22.8771 8.45341 22.8663 8.20625 22.8542C7.09792 22.8021 6.34167 22.6271 5.67708 22.3698C4.98195 22.1087 4.35231 21.6988 3.83229 21.1688C3.30213 20.6482 2.8919 20.0183 2.63021 19.3229C2.37292 18.6594 2.19792 17.9031 2.14583 16.7937C2.13423 16.5466 2.12381 16.2994 2.11458 16.0521L2.10938 15.85C2.09018 15.0904 2.0815 14.3306 2.08333 13.5708V11.4292C2.08043 10.6694 2.08807 9.90958 2.10625 9.15L2.11354 8.94792C2.12188 8.71354 2.13229 8.48333 2.14479 8.20625C2.19688 7.09688 2.37188 6.34167 2.62917 5.67708C2.89074 4.98115 3.30179 4.35107 3.83333 3.83125C4.35322 3.30154 4.98244 2.89165 5.67708 2.63021C6.34167 2.37292 7.09688 2.19792 8.20625 2.14583C8.48333 2.13333 8.71458 2.12292 8.94792 2.11458L9.15 2.10833C9.90958 2.08983 10.6694 2.08184 11.4292 2.08438L13.5708 2.08333ZM12.5 7.29167C11.1187 7.29167 9.7939 7.8404 8.81715 8.81715C7.8404 9.7939 7.29167 11.1187 7.29167 12.5C7.29167 13.8813 7.8404 15.2061 8.81715 16.1828C9.7939 17.1596 11.1187 17.7083 12.5 17.7083C13.8813 17.7083 15.2061 17.1596 16.1828 16.1828C17.1596 15.2061 17.7083 13.8813 17.7083 12.5C17.7083 11.1187 17.1596 9.7939 16.1828 8.81715C15.2061 7.8404 13.8813 7.29167 12.5 7.29167ZM12.5 9.375C12.9104 9.37493 13.3168 9.4557 13.6959 9.61268C14.0751 9.76966 14.4196 9.99979 14.7099 10.2899C15.0001 10.5801 15.2303 10.9245 15.3874 11.3036C15.5446 11.6828 15.6255 12.0891 15.6255 12.4995C15.6256 12.9099 15.5448 13.3162 15.3878 13.6954C15.2309 14.0746 15.0007 14.4191 14.7106 14.7093C14.4205 14.9996 14.076 15.2298 13.6969 15.3869C13.3178 15.544 12.9114 15.6249 12.501 15.625C11.6722 15.625 10.8774 15.2958 10.2913 14.7097C9.70528 14.1237 9.37604 13.3288 9.37604 12.5C9.37604 11.6712 9.70528 10.8763 10.2913 10.2903C10.8774 9.70424 11.6722 9.375 12.501 9.375M17.9698 5.72917C17.6245 5.72917 17.2933 5.86635 17.0491 6.11054C16.8049 6.35473 16.6677 6.68592 16.6677 7.03125C16.6677 7.37658 16.8049 7.70777 17.0491 7.95196C17.2933 8.19615 17.6245 8.33333 17.9698 8.33333C18.3151 8.33333 18.6463 8.19615 18.8905 7.95196C19.1347 7.70777 19.2719 7.37658 19.2719 7.03125C19.2719 6.68592 19.1347 6.35473 18.8905 6.11054C18.6463 5.86635 18.3151 5.72917 17.9698 5.72917Z" fill="#343436"/>
</svg>
