<svg width="36" height="36" viewBox="0 0 36 36" fill="none" xmlns="http://www.w3.org/2000/svg">
<g clip-path="url(#clip0_46_110)">
<path d="M18 2C14.8852 2.0026 11.898 3.23769 9.69081 5.4355C7.48363 7.6333 6.23585 10.6152 6.22 13.73C6.22 18.4 8.84 22.31 10.76 25.16L11.11 25.68C13.0203 28.4486 15.0696 31.1187 17.25 33.68L18.01 34.57L18.77 33.68C20.9502 31.1185 22.9994 28.4484 24.91 25.68L25.26 25.15C27.17 22.3 29.79 18.4 29.79 13.73C29.7741 10.6135 28.525 7.63006 26.3156 5.43197C24.1063 3.23388 21.1165 1.99996 18 2ZM18 19C16.7026 19 15.4342 18.6153 14.3555 17.8944C13.2767 17.1736 12.4359 16.1491 11.9394 14.9504C11.4428 13.7517 11.3129 12.4327 11.5661 11.1602C11.8192 9.88769 12.4439 8.71881 13.3614 7.80138C14.2788 6.88395 15.4477 6.25917 16.7202 6.00605C17.9927 5.75293 19.3117 5.88284 20.5104 6.37935C21.7091 6.87586 22.7336 7.71667 23.4544 8.79546C24.1753 9.87425 24.56 11.1426 24.56 12.44C24.56 14.1798 23.8689 15.8484 22.6386 17.0786C21.4084 18.3089 19.7398 19 18 19Z" fill="#e3e3e3"/>
<path d="M18 16.17C20.06 16.17 21.73 14.5 21.73 12.44C21.73 10.38 20.06 8.71001 18 8.71001C15.94 8.71001 14.27 10.38 14.27 12.44C14.27 14.5 15.94 16.17 18 16.17Z" fill="#e3e3e3"/>
</g>
<defs>
<clipPath id="clip0_46_110">
<rect width="36" height="36" fill="white"/>
</clipPath>
</defs>
</svg>
