<svg width="20" height="20" viewBox="0 0 20 20" fill="none" xmlns="http://www.w3.org/2000/svg">
<g clip-path="url(#clip0_46_114)">
<path d="M14 12.06L14.2 11.85C14.74 11.33 14.99 11.42 15.5 11.93L18.25 14.65C19.07 15.46 19.46 15.61 18.73 16.38L18.53 16.59L14 12.06ZM13.55 12.59L17.95 16.99C17.01 17.69 14.48 19.33 12.61 18.52C10.94 17.79 10.86 17.43 9.61001 16.52C7.50001 14.67 5.24001 12.34 3.54001 10.52C2.63001 9.26001 2.21001 9.21001 1.54001 7.52001C0.830014 5.72001 2.43001 3.12001 3.10001 2.14001L7.50001 6.54001L5.88001 7.72001C5.42001 8.06001 5.94001 8.92001 6.54001 9.52001C7.59001 10.56 9.72001 12.7 10.61 13.52C11.2 14.11 12.06 14.64 12.41 14.18L13.55 12.59ZM3.50001 1.57001L3.71001 1.36001C4.45001 0.680005 4.61001 1.07001 5.41001 1.88001L8.13001 4.62001C8.62001 5.13001 8.73001 5.37001 8.24001 5.89001L8.03001 6.09001L3.50001 1.57001Z" fill="#e3e3e3"/>
</g>
<defs>
<clipPath id="clip0_46_114">
<rect width="20" height="20" fill="white" transform="matrix(0 1 -1 0 20 0)"/>
</clipPath>
</defs>
</svg>
