<svg width="25" height="25" viewBox="0 0 25 25" fill="none" xmlns="http://www.w3.org/2000/svg">
<path d="M10.4167 15.625L15.8229 12.5L10.4167 9.375V15.625ZM22.4583 7.46875C22.5937 7.95833 22.6875 8.61458 22.75 9.44792C22.8229 10.2813 22.8542 11 22.8542 11.625L22.9167 12.5C22.9167 14.7813 22.75 16.4583 22.4583 17.5313C22.1979 18.4688 21.5937 19.0729 20.6562 19.3333C20.1667 19.4687 19.2708 19.5625 17.8958 19.625C16.5417 19.6979 15.3021 19.7292 14.1562 19.7292L12.5 19.7917C8.13541 19.7917 5.41666 19.625 4.34375 19.3333C3.40625 19.0729 2.80208 18.4688 2.54166 17.5313C2.40625 17.0417 2.3125 16.3854 2.25 15.5521C2.17708 14.7188 2.14583 14 2.14583 13.375L2.08333 12.5C2.08333 10.2188 2.24999 8.54167 2.54166 7.46875C2.80208 6.53125 3.40625 5.92708 4.34375 5.66667C4.83333 5.53125 5.72916 5.4375 7.10416 5.375C8.45833 5.30208 9.69791 5.27083 10.8437 5.27083L12.5 5.20833C16.8646 5.20833 19.5833 5.375 20.6562 5.66667C21.5937 5.92708 22.1979 6.53125 22.4583 7.46875Z" fill="#343436"/>
</svg>
