<svg width="26" height="25" viewBox="0 0 26 25" fill="none" xmlns="http://www.w3.org/2000/svg">
<path d="M12.9998 24.7917C13.2816 24.7917 13.5519 24.6797 13.7511 24.4805C13.9504 24.2812 14.0623 24.0109 14.0623 23.7292C14.0623 23.4474 13.9504 23.1771 13.7511 22.9779C13.5519 22.7786 13.2816 22.6667 12.9998 22.6667C10.2758 22.6667 7.66342 21.5846 5.73726 19.6584C3.81111 17.7322 2.729 15.1198 2.729 12.3958C2.729 9.67183 3.81111 7.0594 5.73726 5.13325C7.66342 3.20709 10.2758 2.12499 12.9998 2.12499C13.2816 2.12499 13.5519 2.01305 13.7511 1.81379C13.9504 1.61454 14.0623 1.34428 14.0623 1.06249C14.0623 0.780698 13.9504 0.510447 13.7511 0.31119C13.5519 0.111932 13.2816 -9.53674e-06 12.9998 -9.53674e-06C9.71226 -9.53674e-06 6.55933 1.30597 4.23466 3.63064C1.90999 5.95531 0.604004 9.10824 0.604004 12.3958C0.604004 15.6834 1.90999 18.8363 4.23466 21.161C6.55933 23.4857 9.71226 24.7917 12.9998 24.7917Z" fill="#E3E3E3"/>
<path d="M19.3323 15.895C19.1447 16.0964 19.0425 16.3628 19.0473 16.6381C19.0522 16.9134 19.1637 17.176 19.3584 17.3707C19.553 17.5653 19.8157 17.6768 20.0909 17.6817C20.3662 17.6865 20.6326 17.5844 20.834 17.3967L25.084 13.1467C25.283 12.9475 25.3947 12.6774 25.3947 12.3959C25.3947 12.1143 25.283 11.8442 25.084 11.645L20.834 7.39502C20.7367 7.29063 20.6194 7.20691 20.4891 7.14883C20.3588 7.09076 20.2181 7.05954 20.0754 7.05702C19.9327 7.0545 19.791 7.08075 19.6587 7.13418C19.5264 7.18762 19.4063 7.26716 19.3054 7.36805C19.2045 7.46895 19.1249 7.58913 19.0715 7.72143C19.0181 7.85373 18.9918 7.99543 18.9943 8.1381C18.9969 8.28076 19.0281 8.42145 19.0861 8.55179C19.1442 8.68212 19.2279 8.79942 19.3323 8.89669L21.769 11.3334H10.1665C9.88471 11.3334 9.61446 11.4453 9.4152 11.6446C9.21595 11.8438 9.104 12.1141 9.104 12.3959C9.104 12.6776 9.21595 12.9479 9.4152 13.1472C9.61446 13.3464 9.88471 13.4584 10.1665 13.4584H21.769L19.3323 15.895Z" fill="#E3E3E3"/>
</svg>
