<svg width="25" height="26" viewBox="0 0 25 26" fill="none" xmlns="http://www.w3.org/2000/svg">
<path d="M24 12.8959C24.0022 14.4058 23.7063 15.9013 23.1292 17.2965C22.5521 18.6918 21.7052 19.9594 20.637 21.0267C19.5686 22.0953 18.3 22.9428 16.9038 23.5209C15.5076 24.0991 14.0112 24.3963 12.5001 24.3958C10.8736 24.3998 9.26505 24.0565 7.78197 23.3888L2.97438 24.0999C2.73568 24.1389 2.49107 24.119 2.2618 24.042C2.03254 23.965 1.82554 23.8331 1.6588 23.6579C1.49205 23.4827 1.3706 23.2695 1.305 23.0367C1.23939 22.8039 1.23161 22.5586 1.28234 22.3221L1.94995 17.4449C1.31645 16.0124 0.99277 14.4622 1.00012 12.8959C0.998056 11.386 1.29405 9.89051 1.87114 8.49524C2.44823 7.09998 3.29506 5.83236 4.36308 4.76506C5.4315 3.69639 6.70007 2.84878 8.09626 2.27067C9.49246 1.69256 10.9889 1.3953 12.5001 1.39587C15.5517 1.39608 18.4785 2.60792 20.637 4.76506C21.7046 5.83269 22.5511 7.10037 23.1282 8.49556C23.7053 9.89075 24.0015 11.386 24 12.8959Z" stroke="#E3E3E3" stroke-width="1.5" stroke-linecap="round" stroke-linejoin="round"/>
</svg>
