<svg width="24" height="27" viewBox="0 0 24 27" fill="none" xmlns="http://www.w3.org/2000/svg">
<path d="M11.9493 21.316H20.8531C21.1999 21.3354 21.5458 21.2657 21.8579 21.1135C22.1701 20.9613 22.438 20.7317 22.6363 20.4466C22.8345 20.1614 22.9564 19.8303 22.9903 19.4847C23.0242 19.1391 22.969 18.7905 22.83 18.4723C22.3593 17.0498 20.4831 15.3435 20.4831 13.6647C20.4831 9.93848 20.4831 8.95788 18.6474 6.76657C18.0527 6.06195 17.3164 5.49041 16.4862 5.0891L15.4625 4.59227C15.2901 4.48928 15.1415 4.351 15.0263 4.1865C14.9112 4.02201 14.8321 3.83502 14.7944 3.63782C14.692 2.97416 14.3411 2.37427 13.8128 1.95981C13.2844 1.54535 12.6183 1.34735 11.9493 1.40598C11.2925 1.36654 10.6445 1.57336 10.1319 1.98605C9.61941 2.39874 9.2791 2.98767 9.1775 3.63782C9.1315 3.84154 9.04124 4.03265 8.91312 4.1976C8.78501 4.36254 8.62217 4.49728 8.43617 4.59227L7.41242 5.0891C6.58275 5.49056 5.84684 6.0621 5.2525 6.76657C3.41813 8.95788 3.41813 9.93848 3.41813 13.6647C3.41813 15.3435 1.62691 16.8785 1.15622 18.386C0.872501 19.2973 0.715605 21.316 3.09126 21.316H11.9493Z" stroke="#E3E3E3" stroke-width="1.5" stroke-linecap="round" stroke-linejoin="round"/>
<path d="M16.2156 21.316C16.2272 21.8794 16.1248 22.4394 15.9145 22.9622C15.7042 23.4851 15.3903 23.96 14.9918 24.3585C14.5934 24.757 14.1184 25.0708 13.5956 25.2811C13.0728 25.4914 12.5128 25.5938 11.9494 25.5823C11.3859 25.5942 10.8259 25.492 10.3029 25.2818C9.77999 25.0716 9.30499 24.7578 8.90653 24.3592C8.50807 23.9606 8.19439 23.4856 7.98436 22.9626C7.77434 22.4396 7.67232 21.8795 7.68444 21.316" stroke="#E3E3E3" stroke-width="1.5" stroke-linecap="round" stroke-linejoin="round"/>
</svg>
